<svg width="45" height="44" viewBox="0 0 45 44" fill="none" xmlns="http://www.w3.org/2000/svg">
<path d="M25.3691 22.1968C25.3691 20.778 24.1995 19.6769 22.9325 19.554C20.7174 19.3337 19.8314 20.6395 19.8314 22.1968C19.8314 23.4208 20.8769 24.9625 22.9325 24.8396C23.7713 24.7895 25.3691 24.2272 25.3691 22.1968Z" fill="#FF8787"/>
<path d="M37.7735 14.929C35.8646 15.5384 29.9469 17.7187 26.9196 18.2326C28.4702 2.81613 36.4444 3.47683 38.881 7.44106C41.3176 11.4053 40.148 14.171 37.7735 14.929Z" fill="#FF8787"/>
<path d="M39.767 27.7026C36.7965 27.7026 31.0544 24.3991 28.4702 22.1968C38.881 13.3874 45.3047 17.5718 44.4187 22.417C43.5327 27.2622 40.7695 27.7026 39.767 27.7026Z" fill="#FF8787"/>
<path d="M32.0143 38.9346C29.301 38.0441 27.1412 30.4189 26.4766 26.3812C37.995 27.2622 41.7606 32.768 38.881 36.2918C36.0014 39.8155 33.0598 39.2777 32.0143 38.9346Z" fill="#FF8787"/>
<path d="M16.9518 38.7144C16.5974 35.8954 20.4959 30.4923 22.4895 28.1431C23.8186 29.2443 27.8057 36.2918 27.8057 38.9346C27.8057 41.5774 25.3691 44 22.4895 44C19.6099 44 17.3948 42.2381 16.9518 38.7144Z" fill="#FF8787"/>
<path d="M12.0787 38.9346C15.8 38.5822 17.764 30.4189 18.2809 26.3812C15.1798 26.2344 8.40165 26.9098 6.09797 30.7859C3.21838 35.6311 7.42701 39.3751 12.0787 38.9346Z" fill="#FF8787"/>
<path d="M5.65495 16.6909C7.808 17.034 14.0722 19.9944 16.7303 21.9765C15.6228 24.3991 6.69282 27.0866 5.65495 27.2622C4.92841 27.3851 -0.104234 27.7026 0.560287 22.417C1.22481 17.1314 3.95868 16.4206 5.65495 16.6909Z" fill="#FF8787"/>
<path d="M15.1797 7.00059C16.7746 8.76246 18.0593 15.0759 18.5023 18.0123C12.0786 17.3516 7.6485 14.4886 6.54096 13.3874C5.43343 12.2862 4.99041 8.32199 7.6485 6.11965C10.3066 3.9173 13.1862 4.79824 15.1797 7.00059Z" fill="#FF8787"/>
<path d="M28.4702 5.45895C28.3617 7.92322 24.4831 13.681 22.4895 16.2504C18.5024 12.066 17.3948 5.45895 17.3948 3.91731C17.3948 0.736678 19.8314 -0.487381 22.9325 0.173322C26.0336 0.834026 28.6297 1.83785 28.4702 5.45895Z" fill="#FF8787"/>
</svg>
