<svg width="320" height="54" viewBox="0 0 320 54" fill="none" xmlns="http://www.w3.org/2000/svg">
<path d="M89.3691 27.1968C89.3691 25.778 88.1995 24.6769 86.9325 24.554C84.7174 24.3337 83.8314 25.6395 83.8314 27.1968C83.8314 28.4208 84.8769 29.9625 86.9325 29.8396C87.7713 29.7895 89.3691 29.2272 89.3691 27.1968Z" fill="#FF8787"/>
<path d="M101.773 19.929C99.8646 20.5384 93.9469 22.7187 90.9196 23.2326C92.4702 7.81613 100.444 8.47683 102.881 12.4411C105.318 16.4053 104.148 19.171 101.773 19.929Z" fill="#FF8787"/>
<path d="M103.767 32.7026C100.797 32.7026 95.0544 29.3991 92.4702 27.1968C102.881 18.3874 109.305 22.5718 108.419 27.417C107.533 32.2622 104.769 32.7026 103.767 32.7026Z" fill="#FF8787"/>
<path d="M96.0143 43.9346C93.301 43.0441 91.1412 35.4189 90.4766 31.3812C101.995 32.2622 105.761 37.768 102.881 41.2918C100.001 44.8155 97.0598 44.2777 96.0143 43.9346Z" fill="#FF8787"/>
<path d="M80.9518 43.7144C80.5974 40.8954 84.4959 35.4923 86.4895 33.1431C87.8186 34.2443 91.8057 41.2918 91.8057 43.9346C91.8057 46.5774 89.3691 49 86.4895 49C83.6099 49 81.3948 47.2381 80.9518 43.7144Z" fill="#FF8787"/>
<path d="M76.0787 43.9346C79.8 43.5822 81.764 35.4189 82.2809 31.3812C79.1798 31.2344 72.4016 31.9098 70.098 35.7859C67.2184 40.6311 71.427 44.3751 76.0787 43.9346Z" fill="#FF8787"/>
<path d="M69.6549 21.6909C71.808 22.034 78.0722 24.9944 80.7303 26.9765C79.6228 29.3991 70.6928 32.0866 69.6549 32.2622C68.9284 32.3851 63.8958 32.7026 64.5603 27.417C65.2248 22.1314 67.9587 21.4206 69.6549 21.6909Z" fill="#FF8787"/>
<path d="M79.1797 12.0006C80.7746 13.7625 82.0593 20.0759 82.5023 23.0123C76.0786 22.3516 71.6485 19.4886 70.541 18.3874C69.4334 17.2862 68.9904 13.322 71.6485 11.1196C74.3066 8.9173 77.1862 9.79824 79.1797 12.0006Z" fill="#FF8787"/>
<path d="M92.4702 10.459C92.3617 12.9232 88.4831 18.681 86.4895 21.2504C82.5024 17.066 81.3948 10.459 81.3948 8.91731C81.3948 5.73668 83.8314 4.51262 86.9325 5.17332C90.0336 5.83403 92.6297 6.83785 92.4702 10.459Z" fill="#FF8787"/>
<path d="M127.816 14.4453C130.082 14.4453 131.97 14.6927 133.48 15.1875C135.004 15.6823 136.15 16.4961 136.918 17.6289C137.686 18.7617 138.07 20.2917 138.07 22.2188C138.07 23.6641 137.803 24.9076 137.27 25.9492C136.749 26.9779 136.026 27.8242 135.102 28.4883C134.177 29.1523 133.109 29.6602 131.898 30.0117L139.73 43H137.348L129.984 30.5781H122.895V43H120.883V14.4453H127.816ZM127.621 16.2227H122.895V28.8008H128.578C130.909 28.8008 132.725 28.2409 134.027 27.1211C135.342 26.0013 136 24.3932 136 22.2969C136 19.9922 135.31 18.4036 133.93 17.5312C132.549 16.6589 130.447 16.2227 127.621 16.2227ZM152.211 21.3594C154.021 21.3594 155.525 21.7826 156.723 22.6289C157.934 23.4753 158.832 24.6341 159.418 26.1055C160.017 27.5768 160.316 29.263 160.316 31.1641V32.5898H144.984C144.984 35.5065 145.655 37.7461 146.996 39.3086C148.35 40.8711 150.284 41.6523 152.797 41.6523C154.112 41.6523 155.251 41.5482 156.215 41.3398C157.191 41.1185 158.272 40.7474 159.457 40.2266V42.043C158.415 42.5117 157.374 42.8503 156.332 43.0586C155.29 43.2799 154.092 43.3906 152.738 43.3906C150.59 43.3906 148.786 42.9479 147.328 42.0625C145.883 41.1641 144.789 39.901 144.047 38.2734C143.318 36.6458 142.953 34.7448 142.953 32.5703C142.953 30.4479 143.305 28.5404 144.008 26.8477C144.724 25.1549 145.766 23.8203 147.133 22.8438C148.513 21.8542 150.206 21.3594 152.211 21.3594ZM152.191 23.0586C150.16 23.0586 148.513 23.7357 147.25 25.0898C146 26.431 145.264 28.3711 145.043 30.9102H158.266C158.266 29.3607 158.044 27.9935 157.602 26.8086C157.159 25.6237 156.488 24.7057 155.59 24.0547C154.704 23.3906 153.572 23.0586 152.191 23.0586ZM168.129 12.6094V22.5312C168.129 23.1042 168.116 23.638 168.09 24.1328C168.077 24.6276 168.051 25.1289 168.012 25.6367H168.148C168.5 24.8294 169.001 24.1068 169.652 23.4688C170.316 22.8307 171.13 22.3229 172.094 21.9453C173.07 21.5677 174.197 21.3789 175.473 21.3789C177.087 21.3789 178.441 21.6589 179.535 22.2188C180.642 22.7656 181.482 23.6055 182.055 24.7383C182.628 25.8711 182.914 27.3294 182.914 29.1133V43H180.961V29.2305C180.961 27.1211 180.479 25.5716 179.516 24.582C178.552 23.5924 177.152 23.0977 175.316 23.0977C173.754 23.0977 172.439 23.4036 171.371 24.0156C170.303 24.6146 169.496 25.526 168.949 26.75C168.402 27.9609 168.129 29.4779 168.129 31.3008V43H166.156V12.6094H168.129ZM197.211 21.3984C199.542 21.3984 201.286 21.9844 202.445 23.1562C203.604 24.3281 204.184 26.1966 204.184 28.7617V43H202.66L202.309 39.2891H202.191C201.736 40.0833 201.182 40.793 200.531 41.418C199.88 42.0299 199.079 42.5117 198.129 42.8633C197.191 43.2148 196.046 43.3906 194.691 43.3906C193.324 43.3906 192.152 43.1628 191.176 42.707C190.212 42.2513 189.464 41.5872 188.93 40.7148C188.409 39.8424 188.148 38.7812 188.148 37.5312C188.148 35.4219 189.021 33.8203 190.766 32.7266C192.51 31.6198 195.017 30.9948 198.285 30.8516L202.23 30.6562V29.1133C202.23 26.9388 201.801 25.3893 200.941 24.4648C200.082 23.5404 198.812 23.0781 197.133 23.0781C196.039 23.0781 194.984 23.2214 193.969 23.5078C192.966 23.7812 191.944 24.1784 190.902 24.6992L190.277 23.0586C191.293 22.5768 192.38 22.1797 193.539 21.8672C194.711 21.5547 195.935 21.3984 197.211 21.3984ZM202.211 32.1992L198.5 32.3555C195.805 32.4857 193.754 32.9674 192.348 33.8008C190.941 34.6341 190.238 35.8841 190.238 37.5508C190.238 38.8919 190.655 39.9206 191.488 40.6367C192.335 41.3529 193.507 41.7109 195.004 41.7109C197.335 41.7109 199.112 41.0469 200.336 39.7188C201.573 38.3906 202.198 36.5807 202.211 34.2891V32.1992ZM220.414 21.3594C223.148 21.3594 225.264 22.2773 226.762 24.1133C228.272 25.9492 229.027 28.6576 229.027 32.2383C229.027 34.6341 228.669 36.6654 227.953 38.332C227.237 39.9857 226.215 41.2422 224.887 42.1016C223.572 42.9609 221.99 43.3906 220.141 43.3906C218.865 43.3906 217.751 43.2018 216.801 42.8242C215.863 42.4336 215.082 41.9128 214.457 41.2617C213.832 40.5977 213.35 39.8685 213.012 39.0742H212.875C212.914 39.8164 212.947 40.5911 212.973 41.3984C212.999 42.2057 213.012 42.9674 213.012 43.6836V52.3945H211.02V21.7695H212.66L212.895 26.0078H213.012C213.363 25.2005 213.858 24.4388 214.496 23.7227C215.134 23.0065 215.941 22.4336 216.918 22.0039C217.895 21.5742 219.06 21.3594 220.414 21.3594ZM220.16 23.0977C218.559 23.0977 217.224 23.4492 216.156 24.1523C215.102 24.8424 214.314 25.8581 213.793 27.1992C213.285 28.5273 213.025 30.1549 213.012 32.082V32.4141C213.012 34.4844 213.266 36.2096 213.773 37.5898C214.294 38.957 215.069 39.9792 216.098 40.6562C217.139 41.3333 218.428 41.6719 219.965 41.6719C221.475 41.6719 222.751 41.3008 223.793 40.5586C224.835 39.8164 225.629 38.7422 226.176 37.3359C226.723 35.9297 226.996 34.224 226.996 32.2188C226.996 29.237 226.423 26.9714 225.277 25.4219C224.145 23.8724 222.439 23.0977 220.16 23.0977ZM244.242 21.3594C246.977 21.3594 249.092 22.2773 250.59 24.1133C252.1 25.9492 252.855 28.6576 252.855 32.2383C252.855 34.6341 252.497 36.6654 251.781 38.332C251.065 39.9857 250.043 41.2422 248.715 42.1016C247.4 42.9609 245.818 43.3906 243.969 43.3906C242.693 43.3906 241.579 43.2018 240.629 42.8242C239.691 42.4336 238.91 41.9128 238.285 41.2617C237.66 40.5977 237.178 39.8685 236.84 39.0742H236.703C236.742 39.8164 236.775 40.5911 236.801 41.3984C236.827 42.2057 236.84 42.9674 236.84 43.6836V52.3945H234.848V21.7695H236.488L236.723 26.0078H236.84C237.191 25.2005 237.686 24.4388 238.324 23.7227C238.962 23.0065 239.77 22.4336 240.746 22.0039C241.723 21.5742 242.888 21.3594 244.242 21.3594ZM243.988 23.0977C242.387 23.0977 241.052 23.4492 239.984 24.1523C238.93 24.8424 238.142 25.8581 237.621 27.1992C237.113 28.5273 236.853 30.1549 236.84 32.082V32.4141C236.84 34.4844 237.094 36.2096 237.602 37.5898C238.122 38.957 238.897 39.9792 239.926 40.6562C240.967 41.3333 242.257 41.6719 243.793 41.6719C245.303 41.6719 246.579 41.3008 247.621 40.5586C248.663 39.8164 249.457 38.7422 250.004 37.3359C250.551 35.9297 250.824 34.224 250.824 32.2188C250.824 29.237 250.251 26.9714 249.105 25.4219C247.973 23.8724 246.267 23.0977 243.988 23.0977Z" fill="#FF8787"/>
</svg>
